<mxfile host="app.diagrams.net" modified="2024-01-27T00:19:19.214Z" agent="Mozilla/5.0 (Macintosh; Intel Mac OS X 10_15_7) AppleWebKit/605.1.15 (KHTML, like Gecko) Version/17.2.1 Safari/605.1.15" etag="9yqzdD5A8wi6JbyXJT5F" version="23.0.2" type="github">
  <diagram id="i07t7mmh23xNnQ5YnFfk" name="Page-1">
    <mxGraphModel dx="859" dy="656" grid="1" gridSize="10" guides="1" tooltips="1" connect="1" arrows="1" fold="1" page="1" pageScale="1" pageWidth="1100" pageHeight="850" math="0" shadow="0">
      <root>
        <mxCell id="0" />
        <mxCell id="1" parent="0" />
        <mxCell id="VSBIXLsl3-3mQV6mPoLs-2" value="" style="rounded=0;whiteSpace=wrap;html=1;hachureGap=4;fontFamily=Architects Daughter;fontSource=https%3A%2F%2Ffonts.googleapis.com%2Fcss%3Ffamily%3DArchitects%2BDaughter;fontSize=20;rotation=90;sketch=1;curveFitting=1;jiggle=2;sketchStyle=comic;" parent="1" vertex="1">
          <mxGeometry x="234.31" y="371.95" width="505.77" height="344.38" as="geometry" />
        </mxCell>
        <mxCell id="QOHi6vaadATqwsfO-8CR-53" value="&lt;font style=&quot;font-size: 10px;&quot;&gt;&lt;span style=&quot;font-size: 10px;&quot;&gt;DIM&lt;br style=&quot;font-size: 10px;&quot;&gt;ADJ&lt;/span&gt;&lt;/font&gt;" style="html=1;hachureGap=4;fontFamily=Montserrat;fontSource=https%3A%2F%2Ffonts.googleapis.com%2Fcss%3Ffamily%3DMontserrat;fontSize=10;fillColor=none;sketchStyle=rough;labelPosition=center;verticalLabelPosition=top;align=center;verticalAlign=bottom;textDirection=rtl;rotation=90;fontStyle=0" vertex="1" parent="1">
          <mxGeometry x="337.89" y="291.89" width="40.25" height="63.28" as="geometry" />
        </mxCell>
        <mxCell id="QOHi6vaadATqwsfO-8CR-57" value="FUEL&lt;br&gt;INPUT" style="html=1;hachureGap=4;fontFamily=Montserrat;fontSource=https%3A%2F%2Ffonts.googleapis.com%2Fcss%3Ffamily%3DMontserrat;fontSize=10;fillColor=none;sketchStyle=rough;labelPosition=center;verticalLabelPosition=top;align=center;verticalAlign=bottom;textDirection=rtl;rotation=90;fontStyle=0" vertex="1" parent="1">
          <mxGeometry x="337.40999999999997" y="342.63" width="40.25" height="64.75" as="geometry" />
        </mxCell>
        <mxCell id="QOHi6vaadATqwsfO-8CR-58" value="PRESSURE&lt;br&gt;INPUT" style="html=1;hachureGap=4;fontFamily=Montserrat;fontSource=https%3A%2F%2Ffonts.googleapis.com%2Fcss%3Ffamily%3DMontserrat;fontSize=10;fillColor=none;sketchStyle=rough;labelPosition=center;verticalLabelPosition=top;align=center;verticalAlign=bottom;textDirection=rtl;rotation=90;fontStyle=0;" vertex="1" parent="1">
          <mxGeometry x="317.54" y="412.47" width="80" height="64.82" as="geometry" />
        </mxCell>
        <mxCell id="QOHi6vaadATqwsfO-8CR-60" value="TEMP&lt;br&gt;INPUT" style="html=1;hachureGap=4;fontFamily=Montserrat;fontSource=https%3A%2F%2Ffonts.googleapis.com%2Fcss%3Ffamily%3DMontserrat;fontSize=10;fillColor=none;sketchStyle=rough;labelPosition=center;verticalLabelPosition=top;align=center;verticalAlign=bottom;textDirection=rtl;rotation=90;fontStyle=0" vertex="1" parent="1">
          <mxGeometry x="335.1" y="481.93" width="43.97" height="64.75" as="geometry" />
        </mxCell>
        <mxCell id="QOHi6vaadATqwsfO-8CR-61" value="SPEED&lt;br&gt;INPUT" style="html=1;hachureGap=4;fontFamily=Montserrat;fontSource=https%3A%2F%2Ffonts.googleapis.com%2Fcss%3Ffamily%3DMontserrat;fontSize=10;fillColor=none;sketchStyle=rough;labelPosition=center;verticalLabelPosition=top;align=center;verticalAlign=bottom;textDirection=rtl;rotation=90;fontStyle=0" vertex="1" parent="1">
          <mxGeometry x="324.64" y="542.3" width="64.9" height="64.75" as="geometry" />
        </mxCell>
        <mxCell id="VSBIXLsl3-3mQV6mPoLs-1" value="GPS Speed / Compass&lt;br&gt;GPS-50-2" style="rounded=0;whiteSpace=wrap;html=1;sketch=1;hachureGap=4;jiggle=2;curveFitting=1;fontFamily=Architects Daughter;fontSource=https%3A%2F%2Ffonts.googleapis.com%2Fcss%3Ffamily%3DArchitects%2BDaughter;fontSize=20;" parent="1" vertex="1">
          <mxGeometry x="120" y="40" width="130" height="130" as="geometry" />
        </mxCell>
        <mxCell id="VSBIXLsl3-3mQV6mPoLs-3" value="TPMS&lt;br&gt;BIM-22-3" style="rounded=0;whiteSpace=wrap;html=1;sketch=1;hachureGap=4;jiggle=2;curveFitting=1;fontFamily=Architects Daughter;fontSource=https%3A%2F%2Ffonts.googleapis.com%2Fcss%3Ffamily%3DArchitects%2BDaughter;fontSize=20;" parent="1" vertex="1">
          <mxGeometry x="485" y="40" width="130" height="130" as="geometry" />
        </mxCell>
        <mxCell id="VSBIXLsl3-3mQV6mPoLs-4" value="Outside Air&lt;br&gt;1-SEN-15-1" style="rounded=0;whiteSpace=wrap;html=1;sketch=1;hachureGap=4;jiggle=2;curveFitting=1;fontFamily=Architects Daughter;fontSource=https%3A%2F%2Ffonts.googleapis.com%2Fcss%3Ffamily%3DArchitects%2BDaughter;fontSize=20;" parent="1" vertex="1">
          <mxGeometry x="300" y="40" width="130" height="130" as="geometry" />
        </mxCell>
        <mxCell id="VSBIXLsl3-3mQV6mPoLs-6" value="" style="shape=image;imageAspect=0;aspect=fixed;verticalLabelPosition=bottom;verticalAlign=top;sketch=1;hachureGap=4;jiggle=2;curveFitting=1;fontFamily=Architects Daughter;fontSource=https%3A%2F%2Ffonts.googleapis.com%2Fcss%3Ffamily%3DArchitects%2BDaughter;fontSize=20;image=https://www.dakotadigital.com/cartimages/prd_837.jpg?id=202309060758100;" parent="1" vertex="1">
          <mxGeometry x="1050" y="460" width="600.5" height="373" as="geometry" />
        </mxCell>
        <mxCell id="VSBIXLsl3-3mQV6mPoLs-7" value="" style="shape=image;imageAspect=0;aspect=fixed;verticalLabelPosition=bottom;verticalAlign=top;sketch=1;hachureGap=4;jiggle=2;curveFitting=1;fontFamily=Architects Daughter;fontSource=https%3A%2F%2Ffonts.googleapis.com%2Fcss%3Ffamily%3DArchitects%2BDaughter;fontSize=20;image=https://www.dakotadigital.com/cartimages/prd_1328.jpg?id=202204141001430;" parent="1" vertex="1">
          <mxGeometry x="1110" y="180" width="520" height="299" as="geometry" />
        </mxCell>
        <mxCell id="QOHi6vaadATqwsfO-8CR-1" value="&lt;font style=&quot;font-size: 14px;&quot; data-font-src=&quot;https://fonts.googleapis.com/css?family=Montserrat&quot; face=&quot;Montserrat&quot;&gt;DIM&lt;/font&gt;" style="ellipse;whiteSpace=wrap;html=1;aspect=fixed;hachureGap=4;fontFamily=Architects Daughter;fontSource=https%3A%2F%2Ffonts.googleapis.com%2Fcss%3Ffamily%3DArchitects%2BDaughter;fontSize=14;labelPosition=left;verticalLabelPosition=middle;align=right;verticalAlign=middle;spacingLeft=0;spacingRight=6;spacingTop=0;spacingBottom=0;spacing=0;" vertex="1" parent="1">
          <mxGeometry x="640" y="310" width="10" height="10" as="geometry" />
        </mxCell>
        <mxCell id="QOHi6vaadATqwsfO-8CR-3" value="&lt;font style=&quot;font-size: 14px;&quot; data-font-src=&quot;https://fonts.googleapis.com/css?family=Montserrat&quot; face=&quot;Montserrat&quot;&gt;ENGINE&lt;/font&gt;" style="ellipse;whiteSpace=wrap;html=1;aspect=fixed;hachureGap=4;fontFamily=Architects Daughter;fontSource=https%3A%2F%2Ffonts.googleapis.com%2Fcss%3Ffamily%3DArchitects%2BDaughter;fontSize=14;labelPosition=left;verticalLabelPosition=middle;align=right;verticalAlign=middle;spacingLeft=0;spacingRight=6;spacingTop=0;spacingBottom=0;spacing=0;" vertex="1" parent="1">
          <mxGeometry x="640" y="340" width="10" height="10" as="geometry" />
        </mxCell>
        <mxCell id="QOHi6vaadATqwsfO-8CR-4" value="&lt;font face=&quot;Montserrat&quot; style=&quot;font-size: 14px;&quot;&gt;BRAKE&lt;/font&gt;" style="ellipse;whiteSpace=wrap;html=1;aspect=fixed;hachureGap=4;fontFamily=Architects Daughter;fontSource=https%3A%2F%2Ffonts.googleapis.com%2Fcss%3Ffamily%3DArchitects%2BDaughter;fontSize=14;labelPosition=left;verticalLabelPosition=middle;align=right;verticalAlign=middle;spacingLeft=0;spacingRight=6;spacingTop=0;spacingBottom=0;spacing=0;" vertex="1" parent="1">
          <mxGeometry x="640" y="370" width="10" height="10" as="geometry" />
        </mxCell>
        <mxCell id="QOHi6vaadATqwsfO-8CR-5" value="&lt;font style=&quot;font-size: 14px;&quot; data-font-src=&quot;https://fonts.googleapis.com/css?family=Montserrat&quot; face=&quot;Montserrat&quot;&gt;HIGH&lt;/font&gt;" style="ellipse;whiteSpace=wrap;html=1;aspect=fixed;hachureGap=4;fontFamily=Architects Daughter;fontSource=https%3A%2F%2Ffonts.googleapis.com%2Fcss%3Ffamily%3DArchitects%2BDaughter;fontSize=14;labelPosition=left;verticalLabelPosition=middle;align=right;verticalAlign=middle;spacingLeft=0;spacingRight=6;spacingTop=0;spacingBottom=0;spacing=0;" vertex="1" parent="1">
          <mxGeometry x="640" y="400" width="10" height="10" as="geometry" />
        </mxCell>
        <mxCell id="QOHi6vaadATqwsfO-8CR-6" value="&lt;font style=&quot;font-size: 14px;&quot; data-font-src=&quot;https://fonts.googleapis.com/css?family=Montserrat&quot; face=&quot;Montserrat&quot;&gt;LEFT&lt;/font&gt;" style="ellipse;whiteSpace=wrap;html=1;aspect=fixed;hachureGap=4;fontFamily=Architects Daughter;fontSource=https%3A%2F%2Ffonts.googleapis.com%2Fcss%3Ffamily%3DArchitects%2BDaughter;fontSize=14;labelPosition=left;verticalLabelPosition=middle;align=right;verticalAlign=middle;spacingLeft=0;spacingRight=6;spacingTop=0;spacingBottom=0;spacing=0;" vertex="1" parent="1">
          <mxGeometry x="640" y="430" width="10" height="10" as="geometry" />
        </mxCell>
        <mxCell id="QOHi6vaadATqwsfO-8CR-9" value="&lt;font style=&quot;font-size: 14px;&quot; data-font-src=&quot;https://fonts.googleapis.com/css?family=Montserrat&quot; face=&quot;Montserrat&quot;&gt;RIGHT&lt;/font&gt;" style="ellipse;whiteSpace=wrap;html=1;aspect=fixed;hachureGap=4;fontFamily=Architects Daughter;fontSource=https%3A%2F%2Ffonts.googleapis.com%2Fcss%3Ffamily%3DArchitects%2BDaughter;fontSize=14;labelPosition=left;verticalLabelPosition=middle;align=right;verticalAlign=middle;spacingLeft=0;spacingRight=6;spacingTop=0;spacingBottom=0;spacing=0;" vertex="1" parent="1">
          <mxGeometry x="640" y="459" width="10" height="10" as="geometry" />
        </mxCell>
        <mxCell id="QOHi6vaadATqwsfO-8CR-10" value="&lt;font style=&quot;font-size: 14px;&quot; data-font-src=&quot;https://fonts.googleapis.com/css?family=Montserrat&quot; face=&quot;Montserrat&quot;&gt;4x4/EX&lt;/font&gt;" style="ellipse;whiteSpace=wrap;html=1;aspect=fixed;hachureGap=4;fontFamily=Architects Daughter;fontSource=https%3A%2F%2Ffonts.googleapis.com%2Fcss%3Ffamily%3DArchitects%2BDaughter;fontSize=14;labelPosition=left;verticalLabelPosition=middle;align=right;verticalAlign=middle;spacingLeft=0;spacingRight=6;spacingTop=0;spacingBottom=0;spacing=0;" vertex="1" parent="1">
          <mxGeometry x="640" y="490" width="10" height="10" as="geometry" />
        </mxCell>
        <mxCell id="QOHi6vaadATqwsfO-8CR-11" value="&lt;font style=&quot;font-size: 14px;&quot; data-font-src=&quot;https://fonts.googleapis.com/css?family=Montserrat&quot; face=&quot;Montserrat&quot;&gt;GEAR&lt;/font&gt;" style="ellipse;whiteSpace=wrap;html=1;aspect=fixed;hachureGap=4;fontFamily=Architects Daughter;fontSource=https%3A%2F%2Ffonts.googleapis.com%2Fcss%3Ffamily%3DArchitects%2BDaughter;fontSize=14;labelPosition=left;verticalLabelPosition=middle;align=right;verticalAlign=middle;spacingLeft=0;spacingRight=6;spacingTop=0;spacingBottom=0;spacing=0;" vertex="1" parent="1">
          <mxGeometry x="640" y="520" width="10" height="10" as="geometry" />
        </mxCell>
        <mxCell id="QOHi6vaadATqwsfO-8CR-13" value="&lt;font style=&quot;font-size: 14px;&quot; data-font-src=&quot;https://fonts.googleapis.com/css?family=Montserrat&quot; face=&quot;Montserrat&quot;&gt;WAIT/EX&lt;/font&gt;" style="ellipse;whiteSpace=wrap;html=1;aspect=fixed;hachureGap=4;fontFamily=Architects Daughter;fontSource=https%3A%2F%2Ffonts.googleapis.com%2Fcss%3Ffamily%3DArchitects%2BDaughter;fontSize=14;labelPosition=left;verticalLabelPosition=middle;align=right;verticalAlign=middle;spacingLeft=0;spacingRight=6;spacingTop=0;spacingBottom=0;spacing=0;" vertex="1" parent="1">
          <mxGeometry x="640" y="550" width="10" height="10" as="geometry" />
        </mxCell>
        <mxCell id="QOHi6vaadATqwsfO-8CR-14" value="&lt;font style=&quot;font-size: 14px;&quot; data-font-src=&quot;https://fonts.googleapis.com/css?family=Montserrat&quot; face=&quot;Montserrat&quot;&gt;EX&lt;/font&gt;" style="ellipse;whiteSpace=wrap;html=1;aspect=fixed;hachureGap=4;fontFamily=Architects Daughter;fontSource=https%3A%2F%2Ffonts.googleapis.com%2Fcss%3Ffamily%3DArchitects%2BDaughter;fontSize=14;labelPosition=left;verticalLabelPosition=middle;align=right;verticalAlign=middle;spacingLeft=0;spacingRight=6;spacingTop=0;spacingBottom=0;spacing=0;" vertex="1" parent="1">
          <mxGeometry x="640" y="580" width="10" height="10" as="geometry" />
        </mxCell>
        <mxCell id="QOHi6vaadATqwsfO-8CR-15" value="&lt;font style=&quot;font-size: 14px;&quot; data-font-src=&quot;https://fonts.googleapis.com/css?family=Montserrat&quot; face=&quot;Montserrat&quot;&gt;EX&lt;/font&gt;" style="ellipse;whiteSpace=wrap;html=1;aspect=fixed;hachureGap=4;fontFamily=Architects Daughter;fontSource=https%3A%2F%2Ffonts.googleapis.com%2Fcss%3Ffamily%3DArchitects%2BDaughter;fontSize=14;labelPosition=left;verticalLabelPosition=middle;align=right;verticalAlign=middle;spacingLeft=0;spacingRight=6;spacingTop=0;spacingBottom=0;spacing=0;" vertex="1" parent="1">
          <mxGeometry x="640" y="610" width="10" height="10" as="geometry" />
        </mxCell>
        <mxCell id="QOHi6vaadATqwsfO-8CR-16" value="&lt;font style=&quot;font-size: 14px;&quot; data-font-src=&quot;https://fonts.googleapis.com/css?family=Montserrat&quot; face=&quot;Montserrat&quot;&gt;WARN OUT&lt;/font&gt;" style="ellipse;html=1;aspect=fixed;hachureGap=4;fontFamily=Architects Daughter;fontSource=https%3A%2F%2Ffonts.googleapis.com%2Fcss%3Ffamily%3DArchitects%2BDaughter;fontSize=14;labelPosition=left;verticalLabelPosition=middle;align=right;verticalAlign=middle;spacingLeft=0;spacingRight=6;spacingTop=0;spacingBottom=0;spacing=0;" vertex="1" parent="1">
          <mxGeometry x="640" y="640" width="10" height="10" as="geometry" />
        </mxCell>
        <mxCell id="QOHi6vaadATqwsfO-8CR-17" value="&lt;font style=&quot;font-size: 14px;&quot; data-font-src=&quot;https://fonts.googleapis.com/css?family=Montserrat&quot; face=&quot;Montserrat&quot;&gt;GND&lt;/font&gt;" style="ellipse;whiteSpace=wrap;html=1;aspect=fixed;hachureGap=4;fontFamily=Architects Daughter;fontSource=https%3A%2F%2Ffonts.googleapis.com%2Fcss%3Ffamily%3DArchitects%2BDaughter;fontSize=14;labelPosition=right;verticalLabelPosition=middle;align=left;verticalAlign=middle;spacingLeft=6;spacingRight=0;spacingTop=0;spacingBottom=0;spacing=0;" vertex="1" parent="1">
          <mxGeometry x="330" y="310" width="10" height="10" as="geometry" />
        </mxCell>
        <mxCell id="QOHi6vaadATqwsfO-8CR-19" value="&lt;font style=&quot;font-size: 14px;&quot; data-font-src=&quot;https://fonts.googleapis.com/css?family=Montserrat&quot; face=&quot;Montserrat&quot;&gt;SIG&lt;/font&gt;" style="ellipse;whiteSpace=wrap;html=1;aspect=fixed;hachureGap=4;fontFamily=Architects Daughter;fontSource=https%3A%2F%2Ffonts.googleapis.com%2Fcss%3Ffamily%3DArchitects%2BDaughter;fontSize=14;labelPosition=right;verticalLabelPosition=middle;align=left;verticalAlign=middle;spacingLeft=6;spacingRight=0;spacingTop=0;spacingBottom=0;spacing=0;" vertex="1" parent="1">
          <mxGeometry x="330" y="330" width="10" height="10" as="geometry" />
        </mxCell>
        <mxCell id="QOHi6vaadATqwsfO-8CR-20" value="&lt;font style=&quot;font-size: 14px;&quot; data-font-src=&quot;https://fonts.googleapis.com/css?family=Montserrat&quot; face=&quot;Montserrat&quot;&gt;GND&lt;/font&gt;" style="ellipse;whiteSpace=wrap;html=1;aspect=fixed;hachureGap=4;fontFamily=Architects Daughter;fontSource=https%3A%2F%2Ffonts.googleapis.com%2Fcss%3Ffamily%3DArchitects%2BDaughter;fontSize=14;labelPosition=right;verticalLabelPosition=middle;align=left;verticalAlign=middle;spacingLeft=6;spacingRight=0;spacingTop=0;spacingBottom=0;spacing=0;" vertex="1" parent="1">
          <mxGeometry x="330" y="360" width="10" height="10" as="geometry" />
        </mxCell>
        <mxCell id="QOHi6vaadATqwsfO-8CR-21" value="&lt;font style=&quot;font-size: 14px;&quot; data-font-src=&quot;https://fonts.googleapis.com/css?family=Montserrat&quot; face=&quot;Montserrat&quot;&gt;SIG&lt;/font&gt;" style="ellipse;whiteSpace=wrap;html=1;aspect=fixed;hachureGap=4;fontFamily=Architects Daughter;fontSource=https%3A%2F%2Ffonts.googleapis.com%2Fcss%3Ffamily%3DArchitects%2BDaughter;fontSize=14;labelPosition=right;verticalLabelPosition=middle;align=left;verticalAlign=middle;spacingLeft=6;spacingRight=0;spacingTop=0;spacingBottom=0;spacing=0;" vertex="1" parent="1">
          <mxGeometry x="330" y="380" width="10" height="10" as="geometry" />
        </mxCell>
        <mxCell id="QOHi6vaadATqwsfO-8CR-22" value="&lt;font style=&quot;font-size: 14px;&quot; data-font-src=&quot;https://fonts.googleapis.com/css?family=Montserrat&quot; face=&quot;Montserrat&quot;&gt;DRN&lt;/font&gt;" style="ellipse;whiteSpace=wrap;html=1;aspect=fixed;hachureGap=4;fontFamily=Architects Daughter;fontSource=https%3A%2F%2Ffonts.googleapis.com%2Fcss%3Ffamily%3DArchitects%2BDaughter;fontSize=14;labelPosition=right;verticalLabelPosition=middle;align=left;verticalAlign=middle;spacingLeft=6;spacingRight=0;spacingTop=0;spacingBottom=0;spacing=0;" vertex="1" parent="1">
          <mxGeometry x="330" y="410" width="10" height="10" as="geometry" />
        </mxCell>
        <mxCell id="QOHi6vaadATqwsfO-8CR-23" value="&lt;font style=&quot;font-size: 14px;&quot; data-font-src=&quot;https://fonts.googleapis.com/css?family=Montserrat&quot; face=&quot;Montserrat&quot;&gt;GND&lt;/font&gt;" style="ellipse;whiteSpace=wrap;html=1;aspect=fixed;hachureGap=4;fontFamily=Architects Daughter;fontSource=https%3A%2F%2Ffonts.googleapis.com%2Fcss%3Ffamily%3DArchitects%2BDaughter;fontSize=14;labelPosition=right;verticalLabelPosition=middle;align=left;verticalAlign=middle;spacingLeft=6;spacingRight=0;spacingTop=0;spacingBottom=0;spacing=0;" vertex="1" parent="1">
          <mxGeometry x="330" y="430" width="10" height="10" as="geometry" />
        </mxCell>
        <mxCell id="QOHi6vaadATqwsfO-8CR-24" value="&lt;font style=&quot;font-size: 14px;&quot; data-font-src=&quot;https://fonts.googleapis.com/css?family=Montserrat&quot; face=&quot;Montserrat&quot;&gt;SIG&lt;/font&gt;" style="ellipse;whiteSpace=wrap;html=1;aspect=fixed;hachureGap=4;fontFamily=Architects Daughter;fontSource=https%3A%2F%2Ffonts.googleapis.com%2Fcss%3Ffamily%3DArchitects%2BDaughter;fontSize=14;labelPosition=right;verticalLabelPosition=middle;align=left;verticalAlign=middle;spacingLeft=6;spacingRight=0;spacingTop=0;spacingBottom=0;spacing=0;" vertex="1" parent="1">
          <mxGeometry x="330" y="450" width="10" height="10" as="geometry" />
        </mxCell>
        <mxCell id="QOHi6vaadATqwsfO-8CR-25" value="&lt;font style=&quot;font-size: 14px;&quot; data-font-src=&quot;https://fonts.googleapis.com/css?family=Montserrat&quot; face=&quot;Montserrat&quot;&gt;PWR&lt;/font&gt;" style="ellipse;whiteSpace=wrap;html=1;aspect=fixed;hachureGap=4;fontFamily=Architects Daughter;fontSource=https%3A%2F%2Ffonts.googleapis.com%2Fcss%3Ffamily%3DArchitects%2BDaughter;fontSize=14;labelPosition=right;verticalLabelPosition=middle;align=left;verticalAlign=middle;spacingLeft=6;spacingRight=0;spacingTop=0;spacingBottom=0;spacing=0;" vertex="1" parent="1">
          <mxGeometry x="330" y="469" width="10" height="10" as="geometry" />
        </mxCell>
        <mxCell id="QOHi6vaadATqwsfO-8CR-26" value="&lt;font style=&quot;font-size: 14px;&quot; data-font-src=&quot;https://fonts.googleapis.com/css?family=Montserrat&quot; face=&quot;Montserrat&quot;&gt;GND&lt;/font&gt;" style="ellipse;whiteSpace=wrap;html=1;aspect=fixed;hachureGap=4;fontFamily=Architects Daughter;fontSource=https%3A%2F%2Ffonts.googleapis.com%2Fcss%3Ffamily%3DArchitects%2BDaughter;fontSize=14;labelPosition=right;verticalLabelPosition=middle;align=left;verticalAlign=middle;spacingLeft=6;spacingRight=0;spacingTop=0;spacingBottom=0;spacing=0;" vertex="1" parent="1">
          <mxGeometry x="330" y="500" width="10" height="10" as="geometry" />
        </mxCell>
        <mxCell id="QOHi6vaadATqwsfO-8CR-27" value="&lt;font style=&quot;font-size: 14px;&quot; data-font-src=&quot;https://fonts.googleapis.com/css?family=Montserrat&quot; face=&quot;Montserrat&quot;&gt;SIG&lt;/font&gt;" style="ellipse;whiteSpace=wrap;html=1;aspect=fixed;hachureGap=4;fontFamily=Architects Daughter;fontSource=https%3A%2F%2Ffonts.googleapis.com%2Fcss%3Ffamily%3DArchitects%2BDaughter;fontSize=14;labelPosition=right;verticalLabelPosition=middle;align=left;verticalAlign=middle;spacingLeft=6;spacingRight=0;spacingTop=0;spacingBottom=0;spacing=0;" vertex="1" parent="1">
          <mxGeometry x="330" y="520" width="10" height="10" as="geometry" />
        </mxCell>
        <mxCell id="QOHi6vaadATqwsfO-8CR-28" value="&lt;font style=&quot;font-size: 14px;&quot; data-font-src=&quot;https://fonts.googleapis.com/css?family=Montserrat&quot; face=&quot;Montserrat&quot;&gt;GND&lt;/font&gt;" style="ellipse;whiteSpace=wrap;html=1;aspect=fixed;hachureGap=4;fontFamily=Architects Daughter;fontSource=https%3A%2F%2Ffonts.googleapis.com%2Fcss%3Ffamily%3DArchitects%2BDaughter;fontSize=14;labelPosition=right;verticalLabelPosition=middle;align=left;verticalAlign=middle;spacingLeft=6;spacingRight=0;spacingTop=0;spacingBottom=0;spacing=0;" vertex="1" parent="1">
          <mxGeometry x="330" y="550" width="10" height="10" as="geometry" />
        </mxCell>
        <mxCell id="QOHi6vaadATqwsfO-8CR-29" value="&lt;font style=&quot;font-size: 14px;&quot; data-font-src=&quot;https://fonts.googleapis.com/css?family=Montserrat&quot; face=&quot;Montserrat&quot;&gt;SIG&lt;/font&gt;" style="ellipse;whiteSpace=wrap;html=1;aspect=fixed;hachureGap=4;fontFamily=Architects Daughter;fontSource=https%3A%2F%2Ffonts.googleapis.com%2Fcss%3Ffamily%3DArchitects%2BDaughter;fontSize=14;labelPosition=right;verticalLabelPosition=middle;align=left;verticalAlign=middle;spacingLeft=6;spacingRight=0;spacingTop=0;spacingBottom=0;spacing=0;" vertex="1" parent="1">
          <mxGeometry x="330" y="570" width="10" height="10" as="geometry" />
        </mxCell>
        <mxCell id="QOHi6vaadATqwsfO-8CR-30" value="&lt;font face=&quot;Montserrat&quot; style=&quot;font-size: 14px;&quot;&gt;PWR&lt;/font&gt;" style="ellipse;whiteSpace=wrap;html=1;aspect=fixed;hachureGap=4;fontFamily=Architects Daughter;fontSource=https%3A%2F%2Ffonts.googleapis.com%2Fcss%3Ffamily%3DArchitects%2BDaughter;fontSize=14;labelPosition=right;verticalLabelPosition=middle;align=left;verticalAlign=middle;spacingLeft=6;spacingRight=0;spacingTop=0;spacingBottom=0;spacing=0;" vertex="1" parent="1">
          <mxGeometry x="330" y="590" width="10" height="10" as="geometry" />
        </mxCell>
        <mxCell id="QOHi6vaadATqwsfO-8CR-31" value="&lt;font style=&quot;font-size: 14px;&quot; data-font-src=&quot;https://fonts.googleapis.com/css?family=Montserrat&quot; face=&quot;Montserrat&quot;&gt;CRUISE&lt;/font&gt;" style="ellipse;whiteSpace=wrap;html=1;aspect=fixed;hachureGap=4;fontFamily=Architects Daughter;fontSource=https%3A%2F%2Ffonts.googleapis.com%2Fcss%3Ffamily%3DArchitects%2BDaughter;fontSize=14;labelPosition=right;verticalLabelPosition=middle;align=left;verticalAlign=middle;spacingLeft=6;spacingRight=0;spacingTop=0;spacingBottom=0;spacing=0;" vertex="1" parent="1">
          <mxGeometry x="330" y="630" width="10" height="10" as="geometry" />
        </mxCell>
        <mxCell id="QOHi6vaadATqwsfO-8CR-32" value="&lt;font style=&quot;font-size: 14px;&quot; data-font-src=&quot;https://fonts.googleapis.com/css?family=Montserrat&quot; face=&quot;Montserrat&quot;&gt;SPD OUT&lt;/font&gt;" style="ellipse;html=1;aspect=fixed;hachureGap=4;fontFamily=Architects Daughter;fontSource=https%3A%2F%2Ffonts.googleapis.com%2Fcss%3Ffamily%3DArchitects%2BDaughter;fontSize=14;labelPosition=right;verticalLabelPosition=middle;align=left;verticalAlign=middle;spacingLeft=6;spacingRight=0;spacingTop=0;spacingBottom=0;spacing=0;" vertex="1" parent="1">
          <mxGeometry x="330" y="650" width="10" height="10" as="geometry" />
        </mxCell>
        <mxCell id="QOHi6vaadATqwsfO-8CR-33" value="&lt;font style=&quot;font-size: 14px;&quot; data-font-src=&quot;https://fonts.googleapis.com/css?family=Montserrat&quot; face=&quot;Montserrat&quot;&gt;TACH OUT&lt;/font&gt;" style="ellipse;html=1;aspect=fixed;hachureGap=4;fontFamily=Architects Daughter;fontSource=https%3A%2F%2Ffonts.googleapis.com%2Fcss%3Ffamily%3DArchitects%2BDaughter;fontSize=14;labelPosition=right;verticalLabelPosition=middle;align=left;verticalAlign=middle;spacingLeft=6;spacingRight=0;spacingTop=0;spacingBottom=0;spacing=0;" vertex="1" parent="1">
          <mxGeometry x="330" y="670" width="10" height="10" as="geometry" />
        </mxCell>
        <mxCell id="QOHi6vaadATqwsfO-8CR-34" value="&lt;font style=&quot;font-size: 14px;&quot; data-font-src=&quot;https://fonts.googleapis.com/css?family=Montserrat&quot; face=&quot;Montserrat&quot;&gt;TACH WARN&lt;/font&gt;" style="ellipse;html=1;aspect=fixed;hachureGap=4;fontFamily=Architects Daughter;fontSource=https%3A%2F%2Ffonts.googleapis.com%2Fcss%3Ffamily%3DArchitects%2BDaughter;fontSize=14;labelPosition=right;verticalLabelPosition=middle;align=left;verticalAlign=middle;spacingLeft=6;spacingRight=0;spacingTop=0;spacingBottom=0;spacing=0;" vertex="1" parent="1">
          <mxGeometry x="330" y="690" width="10" height="10" as="geometry" />
        </mxCell>
        <mxCell id="QOHi6vaadATqwsfO-8CR-35" value="&lt;font style=&quot;font-size: 14px;&quot; data-font-src=&quot;https://fonts.googleapis.com/css?family=Montserrat&quot; face=&quot;Montserrat&quot;&gt;TACH&lt;/font&gt;" style="ellipse;html=1;aspect=fixed;hachureGap=4;fontFamily=Architects Daughter;fontSource=https%3A%2F%2Ffonts.googleapis.com%2Fcss%3Ffamily%3DArchitects%2BDaughter;fontSize=14;labelPosition=right;verticalLabelPosition=middle;align=left;verticalAlign=middle;spacingLeft=6;spacingRight=0;spacingTop=0;spacingBottom=0;spacing=0;" vertex="1" parent="1">
          <mxGeometry x="330" y="710" width="10" height="10" as="geometry" />
        </mxCell>
        <mxCell id="QOHi6vaadATqwsfO-8CR-36" value="&lt;font face=&quot;Montserrat&quot; style=&quot;font-size: 14px;&quot;&gt;IGNITION PWR&lt;/font&gt;" style="ellipse;html=1;aspect=fixed;hachureGap=4;fontFamily=Architects Daughter;fontSource=https%3A%2F%2Ffonts.googleapis.com%2Fcss%3Ffamily%3DArchitects%2BDaughter;fontSize=14;labelPosition=right;verticalLabelPosition=middle;align=left;verticalAlign=middle;spacingLeft=6;spacingRight=0;spacingTop=0;spacingBottom=0;spacing=0;" vertex="1" parent="1">
          <mxGeometry x="330" y="730" width="10" height="10" as="geometry" />
        </mxCell>
        <mxCell id="QOHi6vaadATqwsfO-8CR-37" value="&lt;font style=&quot;font-size: 14px;&quot; data-font-src=&quot;https://fonts.googleapis.com/css?family=Montserrat&quot; face=&quot;Montserrat&quot;&gt;12 VDC CONSTANT&lt;/font&gt;" style="ellipse;html=1;aspect=fixed;hachureGap=4;fontFamily=Architects Daughter;fontSource=https%3A%2F%2Ffonts.googleapis.com%2Fcss%3Ffamily%3DArchitects%2BDaughter;fontSize=14;labelPosition=right;verticalLabelPosition=middle;align=left;verticalAlign=middle;spacingLeft=6;spacingRight=0;spacingTop=0;spacingBottom=0;spacing=0;" vertex="1" parent="1">
          <mxGeometry x="330" y="750" width="10" height="10" as="geometry" />
        </mxCell>
        <mxCell id="QOHi6vaadATqwsfO-8CR-38" value="&lt;font style=&quot;font-size: 14px;&quot; data-font-src=&quot;https://fonts.googleapis.com/css?family=Montserrat&quot; face=&quot;Montserrat&quot;&gt;GROUND&lt;/font&gt;" style="ellipse;html=1;aspect=fixed;hachureGap=4;fontFamily=Architects Daughter;fontSource=https%3A%2F%2Ffonts.googleapis.com%2Fcss%3Ffamily%3DArchitects%2BDaughter;fontSize=14;labelPosition=right;verticalLabelPosition=middle;align=left;verticalAlign=middle;spacingLeft=6;spacingRight=0;spacingTop=0;spacingBottom=0;spacing=0;" vertex="1" parent="1">
          <mxGeometry x="330" y="770" width="10" height="10" as="geometry" />
        </mxCell>
        <mxCell id="QOHi6vaadATqwsfO-8CR-41" value="SWITCH INPUT" style="html=1;aspect=fixed;sketch=1;hachureGap=4;jiggle=2;curveFitting=1;fontFamily=Montserrat;fontSource=https%3A%2F%2Ffonts.googleapis.com%2Fcss%3Ffamily%3DMontserrat;fontSize=14;labelPosition=left;verticalLabelPosition=middle;align=right;verticalAlign=middle;spacingRight=6;sketchStyle=comic;" vertex="1" parent="1">
          <mxGeometry x="630" y="670" width="20" height="20" as="geometry" />
        </mxCell>
        <mxCell id="QOHi6vaadATqwsfO-8CR-42" value="DISPLAY CABLE" style="html=1;aspect=fixed;sketch=1;hachureGap=4;jiggle=2;curveFitting=1;fontFamily=Montserrat;fontSource=https%3A%2F%2Ffonts.googleapis.com%2Fcss%3Ffamily%3DMontserrat;fontSize=14;labelPosition=left;verticalLabelPosition=middle;align=right;verticalAlign=middle;spacingRight=6;sketchStyle=comic;" vertex="1" parent="1">
          <mxGeometry x="630" y="700" width="20" height="20" as="geometry" />
        </mxCell>
        <mxCell id="QOHi6vaadATqwsfO-8CR-43" value="CLOCK CABLE" style="html=1;aspect=fixed;sketch=1;hachureGap=4;jiggle=2;curveFitting=1;fontFamily=Montserrat;fontSource=https%3A%2F%2Ffonts.googleapis.com%2Fcss%3Ffamily%3DMontserrat;fontSize=14;labelPosition=left;verticalLabelPosition=middle;align=right;verticalAlign=middle;spacingRight=6;sketchStyle=comic;" vertex="1" parent="1">
          <mxGeometry x="630" y="730" width="20" height="20" as="geometry" />
        </mxCell>
        <mxCell id="QOHi6vaadATqwsfO-8CR-44" value="BIM CABLE" style="html=1;aspect=fixed;sketch=1;hachureGap=4;jiggle=2;curveFitting=1;fontFamily=Montserrat;fontSource=https%3A%2F%2Ffonts.googleapis.com%2Fcss%3Ffamily%3DMontserrat;fontSize=14;labelPosition=left;verticalLabelPosition=middle;align=right;verticalAlign=middle;spacingRight=6;sketchStyle=comic;" vertex="1" parent="1">
          <mxGeometry x="630" y="760" width="20" height="20" as="geometry" />
        </mxCell>
      </root>
    </mxGraphModel>
  </diagram>
</mxfile>
